<svg xmlns="http://www.w3.org/2000/svg" version="1.1" xmlns:xlink="http://www.w3.org/1999/xlink" width="1000" height="1000"><g clip-path="url(#SvgjsClipPath1135)"><rect width="1000" height="1000" fill="#fd9155"></rect><g transform="matrix(2,0,0,2,0,0)"><svg xmlns="http://www.w3.org/2000/svg" version="1.1" xmlns:xlink="http://www.w3.org/1999/xlink" width="500px" height="500px"><svg version="1.1" id="Layer_1" xmlns="http://www.w3.org/2000/svg" xmlns:xlink="http://www.w3.org/1999/xlink" x="0px" y="0px" width="500px" height="500px" viewBox="0 0 500 500" enable-background="new 0 0 500 500" xml:space="preserve">
<g>
	<g>
		<g>
			<g>
				<g>
					<g>
						<defs>
							<rect id="SVGID_1_" x="-736.547" y="-492.692" width="2488.319" height="1494.937"></rect>
						<clipPath id="SvgjsClipPath1135"><rect width="1000" height="1000" x="0" y="0" rx="500" ry="500"></rect></clipPath></defs>
						<clipPath id="SVGID_2_">
							<use xlink:href="#SVGID_1_" overflow="visible"></use>
						</clipPath>
						<path clip-path="url(#SVGID_2_)" d="M448.139,224.069c-0.275-0.386-0.477-0.823-0.594-1.314
							c-0.227-0.346-0.409-0.718-0.518-1.114c-0.146-0.2-0.287-0.402-0.408-0.618l-77.688-108.307
							c-0.008-0.006-0.019-0.011-0.026-0.018c-1.229-0.928-1.789-1.504-3.285-1.744c-0.404-0.065-0.783-0.162-1.144-0.286H138.981
							c-0.159,0.065-0.315,0.133-0.491,0.189c-0.306,0.042-0.613,0.081-0.919,0.12c0.096,0.003-0.744,0.462-0.932,0.582
							c-0.083,0.061-0.158,0.117-0.193,0.143c-0.371,0.29-0.753,0.559-1.145,0.802l-77.606,108.2
							c-0.169,0.331-0.383,0.654-0.659,0.967c-0.697,0.785-1.308,3.989-1.053,5.027c0.496,2.038,1.063,2.692,2.305,4.472
							c0.055,0.08,0.088,0.156,0.137,0.236l187.192,193.686c0.221,0.147,0.792,0.581,0.911,0.653
							c0.518,0.317,1.031,0.637,1.529,0.987c0.227,0.158,0.471,0.267,0.683,0.433c0.673,0.099,1.718,0.813,1.97,0.77
							c0.013-0.002,0.017,0.017,0.024,0.021c0.011,0,0.019-0.004,0.026-0.002c2.896,0.683,1.22,0.133,1.728,0.366
							c0.05-0.012,0.154-0.017,0.201-0.027c0.935-0.258,1.457-0.401,2.352-0.918c0.973-0.562,1.915-1.14,2.861-1.694L447.28,229.733
							c0.125-0.219,0.249-0.434,0.363-0.663c0.108-0.211,0.245-0.399,0.388-0.58c0.019-0.028,0.045-0.051,0.063-0.08
							c0.208-0.817,0.349-1.651,0.304-2.538C448.37,225.271,448.211,224.676,448.139,224.069z M252.158,398.99L98.525,220.172
							l55.407-76.508l195.613-3.247l61.283,82.272L252.158,398.99z"></path>
					</g>
				</g>
			</g>
		</g>
	</g>
	<g>
		<g>
			<g>
				<g>
					<g>
						<defs>
							<rect id="SVGID_3_" x="-736.547" y="-492.692" width="2488.319" height="1494.937"></rect>
						</defs>
						<clipPath id="SVGID_4_">
							<use xlink:href="#SVGID_3_" overflow="visible"></use>
						</clipPath>
						<polygon clip-path="url(#SVGID_4_)" points="254.748,268.863 179.617,268.863 106.759,208.379 113.892,199.786 
							183.647,257.697 254.748,257.697 						"></polygon>
					</g>
				</g>
			</g>
		</g>
	</g>
	<g>
		<g>
			<g>
				<g>
					<g>
						<defs>
							<rect id="SVGID_5_" x="-736.547" y="-492.692" width="2488.319" height="1494.937"></rect>
						</defs>
						<clipPath id="SVGID_6_">
							<use xlink:href="#SVGID_5_" overflow="visible"></use>
						</clipPath>
						<polygon clip-path="url(#SVGID_6_)" points="181.158,340.395 176.006,340.395 176.006,262.843 249.935,141.105 
							259.477,146.899 180.906,263.709 						"></polygon>
					</g>
				</g>
			</g>
		</g>
	</g>
	<g>
		<g>
			<g>
				<g>
					<g>
						<defs>
							
								<rect id="SVGID_7_" x="-743.502" y="-672.225" transform="matrix(-0.8522 0.5232 -0.5232 -0.8522 966.4673 -122.6259)" width="2488.108" height="1494.807"></rect>
						</defs>
						<clipPath id="SVGID_8_">
							<use xlink:href="#SVGID_7_" overflow="visible"></use>
						</clipPath>
						
							<rect x="176.947" y="96.282" transform="matrix(-0.4117 -0.9113 0.9113 -0.4117 97.7493 414.1131)" clip-path="url(#SVGID_8_)" width="11.171" height="158.45"></rect>
					</g>
				</g>
			</g>
		</g>
	</g>
	<g>
		<g>
			<g>
				<g>
					<g>
						<defs>
							<rect id="SVGID_9_" x="-736.547" y="-492.692" width="2488.319" height="1494.937"></rect>
						</defs>
						<clipPath id="SVGID_10_">
							<use xlink:href="#SVGID_9_" overflow="visible"></use>
						</clipPath>
						<rect x="107.867" y="206.679" clip-path="url(#SVGID_10_)" width="5.109" height="64.896"></rect>
					</g>
				</g>
			</g>
		</g>
	</g>
	<g>
		<g>
			<g>
				<g>
					<g>
						<defs>
							<rect id="SVGID_11_" x="-736.547" y="-492.692" width="2488.319" height="1494.937"></rect>
						</defs>
						<clipPath id="SVGID_12_">
							<use xlink:href="#SVGID_11_" overflow="visible"></use>
						</clipPath>
						<polygon clip-path="url(#SVGID_12_)" points="329.882,268.863 254.746,268.863 254.746,257.697 325.852,257.697 
							395.605,199.786 402.737,208.379 						"></polygon>
					</g>
				</g>
			</g>
		</g>
	</g>
	<g>
		<g>
			<g>
				<g>
					<g>
						<defs>
							<rect id="SVGID_13_" x="-736.547" y="-492.692" width="2488.319" height="1494.937"></rect>
						</defs>
						<clipPath id="SVGID_14_">
							<use xlink:href="#SVGID_13_" overflow="visible"></use>
						</clipPath>
						<polygon clip-path="url(#SVGID_14_)" points="333.453,339.27 328.201,338.107 328.801,261.453 250.342,145.143 
							259.521,139.982 333.453,261.719 						"></polygon>
					</g>
				</g>
			</g>
		</g>
	</g>
	<g>
		<g>
			<g>
				<g>
					<g>
						<defs>
							
								<rect id="SVGID_15_" x="-1089.239" y="-465.822" transform="matrix(0.5225 -0.8526 0.8526 0.5225 -166.1616 266.4463)" width="2488.121" height="1494.812"></rect>
						</defs>
						<clipPath id="SVGID_16_">
							<use xlink:href="#SVGID_15_" overflow="visible"></use>
						</clipPath>
						
							<rect x="247.727" y="169.888" transform="matrix(-0.9114 -0.4115 0.4115 -0.9114 552.7358 469.9455)" clip-path="url(#SVGID_16_)" width="158.456" height="11.172"></rect>
					</g>
				</g>
			</g>
		</g>
	</g>
	<g>
		<g>
			<g>
				<g>
					<g>
						<defs>
							<rect id="SVGID_17_" x="-736.547" y="-492.692" width="2488.319" height="1494.937"></rect>
						</defs>
						<clipPath id="SVGID_18_">
							<use xlink:href="#SVGID_17_" overflow="visible"></use>
						</clipPath>
						<rect x="397.232" y="206.679" clip-path="url(#SVGID_18_)" width="4.397" height="64.896"></rect>
					</g>
				</g>
			</g>
		</g>
	</g>
</g>
<rect x="-353.5" y="-16.5" fill="none" width="370" height="278"></rect>
</svg></svg></g></g></svg>